<svg width="597" height="927" viewBox="0 0 597 927" fill="none" xmlns="http://www.w3.org/2000/svg">
<path d="M365.269 67.4032H298.718C290.105 67.4032 283.12 74.3862 283.12 83.0015C283.12 91.615 290.103 98.5998 298.718 98.5998H365.269C373.883 98.5998 380.868 91.6169 380.868 83.0015C380.868 74.3862 373.885 67.4032 365.269 67.4032Z" fill="white"/>
<path d="M232.334 67.4032H232.169C223.555 67.4032 216.653 74.3862 216.653 83.0015C216.653 91.615 223.721 98.5998 232.334 98.5998C240.948 98.5998 247.932 91.6169 247.932 83.0015C247.932 74.3862 240.95 67.4032 232.334 67.4032Z" fill="white"/>
<path d="M343.337 830.504H276.786C268.172 830.504 261.188 837.487 261.188 846.102C261.188 854.716 268.17 861.701 276.786 861.701H343.337C351.951 861.701 358.935 854.718 358.935 846.102C358.935 837.487 351.952 830.504 343.337 830.504Z" fill="white"/>
<path d="M422.092 360.796H200.934L197.424 349.094C192.741 333.487 178.648 323 162.353 323H119.718C109.934 323 102 330.932 102 340.718C102 350.502 109.932 358.436 119.718 358.436H162.353C162.87 358.436 163.336 358.78 163.485 359.278L208.06 507.857C215.157 531.523 236.525 547.421 261.231 547.421H384.298C414.908 547.421 439.812 522.516 439.812 491.906V378.514C439.81 368.728 431.878 360.796 422.092 360.796Z" fill="white"/>
<path d="M212.444 585.501C192.252 585.501 175.828 601.927 175.828 622.116C175.828 642.306 192.254 658.731 212.444 658.731C232.633 658.731 249.059 642.306 249.059 622.116C249.059 601.927 232.635 585.501 212.444 585.501Z" fill="white"/>
<path d="M427.093 585.501C406.901 585.501 390.478 601.927 390.478 622.116C390.478 642.306 406.903 658.731 427.093 658.731C447.283 658.731 463.708 642.306 463.708 622.116C463.708 601.927 447.283 585.501 427.093 585.501Z" fill="white"/>
<path fill-rule="evenodd" clip-rule="evenodd" d="M0 863.61C0 898.449 29.3953 926.794 65.5249 926.794H531.475C567.605 926.794 597 898.449 597 863.61V63.186C597 28.3471 567.605 0 531.475 0H65.5249C29.3954 0 0 28.3471 0 63.186V863.61ZM565.793 863.608C565.793 881.858 550.397 896.704 531.471 896.704H65.5211C46.5958 896.704 31.1993 881.858 31.1993 863.608L31.2069 63.186C31.2069 44.9367 46.6034 30.0902 65.5287 30.0902H531.479C550.404 30.0902 565.801 44.9367 565.801 63.186L565.793 863.608Z" fill="white"/>
</svg>
