<svg width="617" height="947" viewBox="0 0 617 947" fill="none" xmlns="http://www.w3.org/2000/svg">
<path d="M357.351 801H243.649C228.933 801 217 812.93 217 827.649C217 842.365 228.93 854.299 243.649 854.299H357.351C372.067 854.299 384 842.368 384 827.649C384 812.93 372.07 801 357.351 801Z" fill="white"/>
<path d="M436.092 354.796H214.934L211.424 343.094C206.741 327.487 192.648 317 176.353 317H133.718C123.934 317 116 324.932 116 334.718C116 344.502 123.932 352.436 133.718 352.436H176.353C176.87 352.436 177.336 352.78 177.485 353.278L222.06 501.857C229.157 525.523 250.525 541.421 275.231 541.421H398.298C428.908 541.421 453.812 516.516 453.812 485.906V372.514C453.81 362.728 445.878 354.796 436.092 354.796Z" fill="white"/>
<path d="M248.615 555C228.423 555 212 571.426 212 591.615C212 611.805 228.426 628.23 248.615 628.23C268.805 628.23 285.23 611.805 285.23 591.615C285.23 571.426 268.807 555 248.615 555Z" fill="white"/>
<path d="M420.615 555C400.423 555 384 571.426 384 591.615C384 611.805 400.426 628.23 420.615 628.23C440.805 628.23 457.23 611.805 457.23 591.615C457.23 571.426 440.805 555 420.615 555Z" fill="white"/>
<path d="M541.476 5C547.525 5.00004 553.406 5.74252 559.023 7.13965C559.304 7.20946 559.584 7.28143 559.863 7.35449C564.279 8.50937 568.526 10.0706 572.56 11.9932C573.454 12.4195 574.338 12.8637 575.211 13.3252C597.067 24.8805 612 47.3054 612 73.1846V873.61C612 911.38 580.193 941.794 541.475 941.794H75.5244C36.8067 941.794 5.00008 911.38 5 873.61V73.1855C5 72.4375 5.0143 71.6923 5.03906 70.9502C5.09201 69.3623 5.19976 67.7885 5.36328 66.2305C5.40302 65.8519 5.44703 65.4744 5.49316 65.0977C5.53251 64.7763 5.57421 64.4557 5.61816 64.1357C5.6719 63.7447 5.72849 63.3547 5.78906 62.9658C6.16911 60.5255 6.68383 58.1285 7.32422 55.7812C7.40643 55.48 7.49079 55.1795 7.57715 54.8799C8.62979 51.2272 9.98848 47.6993 11.626 44.3232C11.7161 44.1375 11.8076 43.9524 11.8994 43.7676C18.359 30.7584 28.9604 20.0484 42.0117 13.207C42.8121 12.7875 43.622 12.3833 44.4404 11.9932C53.8368 7.51443 64.3955 5 75.5254 5H541.476ZM75.5283 45.0898C59.1918 45.0901 46.2073 57.8679 46.207 73.1855V73.1865L46.1992 873.608L46.209 874.324C46.606 889.322 59.4397 901.704 75.5215 901.704H541.472C557.808 901.704 570.793 888.926 570.793 873.608L570.801 73.1855C570.801 57.8677 557.815 45.0898 541.479 45.0898H75.5283Z" fill="white" stroke="white" stroke-width="10"/>
</svg>
